<mxfile host="app.diagrams.net" modified="2023-03-01T14:53:32.535Z" agent="5.0 (Windows NT 10.0; Win64; x64) AppleWebKit/537.36 (KHTML, like Gecko) Chrome/95.0.4638.69 Safari/537.36" etag="EKV3DFlLqG3vIGzEu0yX" version="20.8.23" type="github">
  <diagram name="第 1 页" id="yYPAJdEWI0AcBG-iFEyc">
    <mxGraphModel dx="600" dy="319" grid="1" gridSize="10" guides="1" tooltips="1" connect="1" arrows="1" fold="1" page="1" pageScale="1" pageWidth="827" pageHeight="1169" math="0" shadow="0">
      <root>
        <mxCell id="0" />
        <mxCell id="1" parent="0" />
        <mxCell id="m4VkLZwwjchYnXq3acx7-3" value="" style="edgeStyle=orthogonalEdgeStyle;rounded=0;orthogonalLoop=1;jettySize=auto;html=1;" edge="1" parent="1" source="m4VkLZwwjchYnXq3acx7-1" target="m4VkLZwwjchYnXq3acx7-2">
          <mxGeometry relative="1" as="geometry" />
        </mxCell>
        <mxCell id="m4VkLZwwjchYnXq3acx7-1" value="上传文件" style="rounded=0;whiteSpace=wrap;html=1;" vertex="1" parent="1">
          <mxGeometry x="190" y="190" width="120" height="60" as="geometry" />
        </mxCell>
        <mxCell id="m4VkLZwwjchYnXq3acx7-2" value="检测到重复的，就把covered设置成1，然后给rabbitmq发送消息" style="rounded=0;whiteSpace=wrap;html=1;" vertex="1" parent="1">
          <mxGeometry x="390" y="190" width="120" height="60" as="geometry" />
        </mxCell>
      </root>
    </mxGraphModel>
  </diagram>
</mxfile>
